<svg width="46" height="24" viewBox="0 0 46 24" fill="none" xmlns="http://www.w3.org/2000/svg">
<path fill-rule="evenodd" clip-rule="evenodd" d="M0.25 12.0001C0.25 11.6686 0.421205 11.3507 0.725951 11.1162C1.0307 10.8818 1.44402 10.7501 1.875 10.7501H40.2023L29.9745 2.88511C29.6694 2.6504 29.4979 2.33205 29.4979 2.00011C29.4979 1.66817 29.6694 1.34983 29.9745 1.11511C30.2796 0.880397 30.6935 0.748535 31.125 0.748535C31.5565 0.748535 31.9704 0.880397 32.2755 1.11511L45.2755 11.1151C45.4268 11.2312 45.5469 11.3692 45.6288 11.521C45.7107 11.6729 45.7529 11.8357 45.7529 12.0001C45.7529 12.1645 45.7107 12.3273 45.6288 12.4792C45.5469 12.6311 45.4268 12.769 45.2755 12.8851L32.2755 22.8851C31.9704 23.1198 31.5565 23.2517 31.125 23.2517C30.6935 23.2517 30.2796 23.1198 29.9745 22.8851C29.6694 22.6504 29.4979 22.3321 29.4979 22.0001C29.4979 21.6682 29.6694 21.3498 29.9745 21.1151L40.2023 13.2501H1.875C1.44402 13.2501 1.0307 13.1184 0.725951 12.884C0.421205 12.6496 0.25 12.3316 0.25 12.0001Z" fill="#FDD9E2"/>
</svg>
