<svg width="25" height="22" viewBox="0 0 25 22" fill="none" xmlns="http://www.w3.org/2000/svg">
<path d="M24.875 11.0006C24.875 5.20204 19.335 0.5 12.5 0.5C5.66504 0.5 0.125 5.20204 0.125 11.0006C0.125 16.7994 5.66504 21.5 12.5 21.5C14.6207 21.5014 16.7058 21.0376 18.5529 20.1535C18.6541 20.1228 18.7416 20.0664 18.8036 19.9919C18.8656 19.9175 18.8989 19.8286 18.899 19.7374C18.899 19.5632 18.7799 19.4146 18.608 19.3418L18.609 19.3406L16.4544 18.2201L16.4534 18.2212C16.3605 18.1548 16.2432 18.1183 16.1217 18.1179C16.0432 18.1179 15.9696 18.1336 15.903 18.1596L15.8983 18.1562C14.8188 18.5274 13.6648 18.7178 12.5 18.7171C7.48433 18.7171 3.4052 15.2557 3.4052 11.0006C3.4052 6.74596 7.48466 3.2832 12.5 3.2832C17.2263 3.2832 21.1199 6.35872 21.5532 10.274C21.5512 13.0773 20.1095 14.64 18.9782 14.64C18.3687 14.64 17.9044 14.2956 17.9044 13.532C17.9044 13.3845 17.9625 13.0639 17.9915 12.941L19.3653 7.36392H19.3594C19.3633 7.34404 19.3732 7.32584 19.3732 7.30512C19.3732 7.20635 19.327 7.11163 19.2447 7.04179C19.1624 6.97196 19.0507 6.93272 18.9343 6.93272H16.5484C16.3316 6.93272 16.1597 7.06852 16.1241 7.24408L16.1158 7.2438L15.8726 8.23752C15.2631 7.30176 14.015 6.58748 12.2446 6.58748C8.87792 6.58748 5.68517 9.3214 5.68517 12.6212C5.68517 15.0099 7.3685 16.7582 10.1837 16.7582C11.7512 16.7582 13.3474 15.9946 14.3632 14.7884L14.3922 14.936C14.5952 15.8717 17.6404 17.0572 19.3822 17.0572C21.907 17.0572 24.8658 15.6136 24.8658 11.4763L24.8585 11.4738C24.8674 11.3164 24.875 11.1593 24.875 11.0006ZM14.683 12.9163C14.0444 13.6799 12.9996 14.5417 11.4612 14.5417C9.98078 14.5417 9.0812 13.6552 9.0812 12.3751C9.0812 10.5769 10.7355 8.80396 13.0574 8.80396C14.3635 8.80396 15.1182 9.51824 15.4083 10.06L14.683 12.9163Z" fill="#F94370"/>
</svg>
