<svg width="29" height="23" viewBox="0 0 29 23" fill="none" xmlns="http://www.w3.org/2000/svg">
<path d="M25.375 1.5C25.8557 1.5 26.3167 1.65804 26.6566 1.93934C26.9965 2.22064 27.1875 2.60218 27.1875 3V15C27.1875 15.3978 26.9965 15.7794 26.6566 16.0607C26.3167 16.342 25.8557 16.5 25.375 16.5H20.8438C20.281 16.5 19.726 16.6084 19.2226 16.8167C18.7192 17.025 18.2814 17.3274 17.9437 17.7L14.5 21.4995L11.0562 17.7C10.7186 17.3274 10.2808 17.025 9.7774 16.8167C9.27405 16.6084 8.71901 16.5 8.15625 16.5H3.625C3.14429 16.5 2.68328 16.342 2.34337 16.0607C2.00346 15.7794 1.8125 15.3978 1.8125 15V3C1.8125 2.60218 2.00346 2.22064 2.34337 1.93934C2.68328 1.65804 3.14429 1.5 3.625 1.5H25.375ZM3.625 0C2.66359 0 1.74156 0.316071 1.06174 0.87868C0.381919 1.44129 0 2.20435 0 3L0 15C0 15.7957 0.381919 16.5587 1.06174 17.1213C1.74156 17.6839 2.66359 18 3.625 18H8.15625C8.43763 18 8.71515 18.0542 8.96682 18.1584C9.2185 18.2625 9.43742 18.4137 9.60625 18.6L13.05 22.3995C13.2188 22.5858 13.4377 22.737 13.6894 22.8411C13.9411 22.9453 14.2186 22.9995 14.5 22.9995C14.7814 22.9995 15.0589 22.9453 15.3106 22.8411C15.5622 22.737 15.7812 22.5858 15.95 22.3995L19.3937 18.6C19.5626 18.4137 19.7815 18.2625 20.0332 18.1584C20.2849 18.0542 20.5624 18 20.8438 18H25.375C26.3364 18 27.2584 17.6839 27.9383 17.1213C28.6181 16.5587 29 15.7957 29 15V3C29 2.20435 28.6181 1.44129 27.9383 0.87868C27.2584 0.316071 26.3364 0 25.375 0L3.625 0Z" fill="#F94370"/>
</svg>
