<svg width="165" height="180" viewBox="0 0 165 180" fill="none" xmlns="http://www.w3.org/2000/svg">
<path d="M155.501 62.1937L131.899 26.9144C114.671 1.16123 77.1092 0.303997 58.7237 25.2444C47.0144 41.1283 26.279 47.4613 7.69307 40.8302L-96.9671 3.48913C-122.953 -5.78207 -148.376 18.5781 -140.223 44.9359L-134.602 63.1102C-129.606 79.259 -143.744 94.8556 -160.304 91.4653C-174.091 88.6427 -187 99.1763 -187 113.249V138.203C-187 148.997 -182.903 159.388 -175.536 167.277L-139.949 205.385C-130.227 215.796 -114.757 218.448 -102.123 211.87L-92.5433 206.882C-78.0236 199.322 -60.368 208.232 -57.8242 224.403C-56.6735 231.719 -52.2034 238.09 -45.7163 241.662L-7.35031 262.785C23.0391 279.516 58.2163 250.397 47.456 217.417C42.3956 201.907 47.7305 184.895 60.7411 175.052L89.6544 153.179C94.185 149.751 99.2666 147.121 104.681 145.401L129.082 137.648C160.815 127.567 174.014 89.8677 155.501 62.1937Z" fill="#F94370" stroke="#F94370"/>
</svg>
