<svg width="27" height="25" viewBox="0 0 27 25" fill="none" xmlns="http://www.w3.org/2000/svg">
<path d="M13.5 0.676025C14.9208 0.676025 16.2834 1.16633 17.2881 2.03908C18.2927 2.91183 18.8571 4.09554 18.8571 5.32979V8.43231C18.8571 9.66656 18.2927 10.8503 17.2881 11.723C16.2834 12.5958 14.9208 13.0861 13.5 13.0861C12.0792 13.0861 10.7166 12.5958 9.71193 11.723C8.70727 10.8503 8.14286 9.66656 8.14286 8.43231V5.32979C8.14286 4.09554 8.70727 2.91183 9.71193 2.03908C10.7166 1.16633 12.0792 0.676025 13.5 0.676025V0.676025ZM26 22.3936V21.2643C26 16.3204 19.4179 13.0861 13.5 13.0861C7.58214 13.0861 1 16.3204 1 21.2643V22.3936C1 22.805 1.18814 23.1996 1.52302 23.4905C1.85791 23.7814 2.31211 23.9449 2.78571 23.9449H24.2143C24.6879 23.9449 25.1421 23.7814 25.477 23.4905C25.8119 23.1996 26 22.805 26 22.3936Z" stroke="#F96F91" stroke-linecap="round" stroke-linejoin="round"/>
</svg>
