<svg width="151" height="151" viewBox="0 0 151 151" fill="none" xmlns="http://www.w3.org/2000/svg">
<circle cx="75.5" cy="75.5" r="74" stroke="#F94370" stroke-width="3"/>
<path d="M84.8333 118.5L94.1667 109.167L84.8333 99.8334M80.1667 88.1667L70.8333 120.833L80.1667 88.1667ZM66.1667 109.167L56.8333 99.8334L66.1667 90.5V109.167Z" stroke="#F94370" stroke-width="3" stroke-linecap="round" stroke-linejoin="round"/>
<path d="M45.332 56.8945C45.3086 57.6523 45.2109 58.4102 45.0391 59.168C44.875 59.918 44.625 60.6016 44.2891 61.2188C43.9531 61.8359 43.5195 62.3281 42.9883 62.6953C42.457 63.0625 41.8125 63.2461 41.0547 63.2461C40.6016 63.2461 40.1992 63.1562 39.8477 62.9766C39.5039 62.7891 39.2188 62.5234 38.9922 62.1797C38.7656 61.8359 38.6016 61.4219 38.5 60.9375C38.3984 60.4531 38.3672 59.9102 38.4062 59.3086L38.9219 52.6523H40.8906L40.375 59.2969C40.3438 59.7734 40.3477 60.1602 40.3867 60.457C40.4336 60.7539 40.5078 60.9844 40.6094 61.1484C40.7109 61.3125 40.8281 61.4258 40.9609 61.4883C41.0938 61.5508 41.2383 61.582 41.3945 61.582C41.7305 61.582 42.0273 61.4648 42.2852 61.2305C42.5508 60.9883 42.7773 60.6562 42.9648 60.2344C43.1523 59.8047 43.3008 59.3125 43.4102 58.7578C43.5273 58.1953 43.5938 57.5898 43.6094 56.9414C43.6484 55.8477 43.6055 54.8398 43.4805 53.918C43.3555 52.9961 43.1406 52.1758 42.8359 51.457C42.5312 50.7305 42.1367 50.1172 41.6523 49.6172C41.168 49.1094 40.5898 48.7227 39.918 48.457C39.2539 48.1914 38.4961 48.0586 37.6445 48.0586C36.832 48.0586 36.0938 48.2109 35.4297 48.5156C34.7656 48.8125 34.1719 49.2422 33.6484 49.8047C33.125 50.3594 32.6758 51.0234 32.3008 51.7969C31.9336 52.5703 31.6445 53.4375 31.4336 54.3984C31.2305 55.3594 31.1094 56.3906 31.0703 57.4922C31.0234 58.6406 31.0703 59.6914 31.2109 60.6445C31.3594 61.5898 31.5977 62.4297 31.9258 63.1641C32.2539 63.8984 32.6602 64.5156 33.1445 65.0156C33.6367 65.5156 34.207 65.8906 34.8555 66.1406C35.5117 66.3984 36.2344 66.5273 37.0234 66.5273C37.6016 66.5273 38.1875 66.4492 38.7812 66.293C39.375 66.1367 39.8789 65.9336 40.293 65.6836L40.6914 67.2656C40.2227 67.6172 39.6406 67.8789 38.9453 68.0508C38.2578 68.2227 37.6055 68.3086 36.9883 68.3086C35.957 68.3086 35.0195 68.1523 34.1758 67.8398C33.3398 67.5352 32.5977 67.0781 31.9492 66.4688C31.3008 65.8672 30.7617 65.1289 30.332 64.2539C29.9023 63.3789 29.5859 62.375 29.3828 61.2422C29.1797 60.1094 29.1016 58.8594 29.1484 57.4922C29.1953 56.2109 29.3594 55.0039 29.6406 53.8711C29.9219 52.7383 30.3047 51.7109 30.7891 50.7891C31.2812 49.8672 31.8711 49.0742 32.5586 48.4102C33.2461 47.7383 34.0195 47.2227 34.8789 46.8633C35.7383 46.5039 36.6719 46.3242 37.6797 46.3242C38.6875 46.3242 39.6016 46.4844 40.4219 46.8047C41.2422 47.125 41.9688 47.5898 42.6016 48.1992C43.2344 48.8008 43.7617 49.5352 44.1836 50.4023C44.6055 51.2695 44.9141 52.25 45.1094 53.3438C45.3047 54.4297 45.3789 55.6133 45.332 56.8945ZM35.5703 58.0195C35.5312 58.5508 35.5312 59.0234 35.5703 59.4375C35.6094 59.8438 35.6836 60.1875 35.793 60.4688C35.9102 60.7422 36.0586 60.9531 36.2383 61.1016C36.4258 61.2422 36.6367 61.3125 36.8711 61.3125C37.0117 61.3125 37.1602 61.2656 37.3164 61.1719C37.4727 61.0781 37.6289 60.9258 37.7852 60.7148C37.9492 60.4961 38.1016 60.207 38.2422 59.8477C38.3828 59.4805 38.5 59.0312 38.5938 58.5L39.4375 59.543C39.2891 60.1523 39.1016 60.6875 38.875 61.1484C38.6484 61.6016 38.3906 61.9844 38.1016 62.2969C37.8203 62.6016 37.5156 62.8359 37.1875 63C36.8672 63.1562 36.5352 63.2344 36.1914 63.2344C35.707 63.2344 35.2773 63.1094 34.9023 62.8594C34.5273 62.6094 34.2148 62.2578 33.9648 61.8047C33.7227 61.3438 33.5508 60.7969 33.4492 60.1641C33.3555 59.5234 33.3398 58.8086 33.4023 58.0195C33.4727 57.2148 33.6016 56.4688 33.7891 55.7812C33.9766 55.0938 34.2109 54.4805 34.4922 53.9414C34.7734 53.4023 35.0898 52.9453 35.4414 52.5703C35.8008 52.1875 36.1836 51.8984 36.5898 51.7031C36.9961 51.5 37.418 51.3984 37.8555 51.3984C38.6211 51.3984 39.2188 51.5234 39.6484 51.7734C40.0859 52.0234 40.5 52.3164 40.8906 52.6523L39.8828 54.0938C39.6875 53.8828 39.4375 53.6836 39.1328 53.4961C38.8359 53.3008 38.4805 53.2031 38.0664 53.2031C37.7148 53.2031 37.3945 53.3086 37.1055 53.5195C36.8242 53.7227 36.5781 54.0273 36.3672 54.4336C36.1641 54.8398 35.9922 55.3438 35.8516 55.9453C35.7188 56.5391 35.625 57.2305 35.5703 58.0195ZM53.5 55.3125H50.0195L50.0078 53.1328H53.0898C53.5664 53.1328 53.9727 53.0391 54.3086 52.8516C54.6445 52.6641 54.8984 52.3906 55.0703 52.0312C55.25 51.6719 55.3398 51.2383 55.3398 50.7305C55.3398 50.168 55.2617 49.7109 55.1055 49.3594C54.9492 49 54.7031 48.7383 54.3672 48.5742C54.0391 48.4102 53.6172 48.3281 53.1016 48.3281H50.8633V63H48.0156V45.9375H53.1016C53.8984 45.9375 54.6094 46.0312 55.2344 46.2188C55.8672 46.3984 56.4023 46.6758 56.8398 47.0508C57.2773 47.4258 57.6094 47.9062 57.8359 48.4922C58.0703 49.0703 58.1875 49.7578 58.1875 50.5547C58.1875 51.25 58.0391 51.8906 57.7422 52.4766C57.4453 53.0547 57.0039 53.5312 56.418 53.9062C55.8398 54.2734 55.1211 54.4922 54.2617 54.5625L53.5 55.3125ZM53.3945 63H49.082L50.3945 60.6211H53.3945C53.9023 60.6211 54.3203 60.5117 54.6484 60.293C54.9766 60.0742 55.2227 59.7695 55.3867 59.3789C55.5508 58.9883 55.6328 58.5312 55.6328 58.0078C55.6328 57.4609 55.5625 56.9844 55.4219 56.5781C55.2812 56.1719 55.0547 55.8594 54.7422 55.6406C54.4297 55.4219 54.0156 55.3125 53.5 55.3125H50.6289L50.6523 53.1328H54.3203L54.9766 53.9648C55.7969 53.9805 56.4648 54.1836 56.9805 54.5742C57.4961 54.957 57.875 55.4531 58.1172 56.0625C58.3594 56.6719 58.4805 57.3242 58.4805 58.0195C58.4805 59.1055 58.2773 60.0195 57.8711 60.7617C57.4648 61.4961 56.8828 62.0547 56.125 62.4375C55.375 62.8125 54.4648 63 53.3945 63ZM65.957 63.2344C65.1367 63.2344 64.4062 63.1133 63.7656 62.8711C63.125 62.6211 62.582 62.2539 62.1367 61.7695C61.6914 61.2773 61.3516 60.6758 61.1172 59.9648C60.8828 59.2461 60.7656 58.4141 60.7656 57.4688V56.25C60.7656 55.1797 60.8867 54.2578 61.1289 53.4844C61.3789 52.7031 61.7227 52.0625 62.1602 51.5625C62.5977 51.0625 63.1133 50.6914 63.707 50.4492C64.3086 50.207 64.9609 50.0859 65.6641 50.0859C66.4609 50.0859 67.1523 50.2148 67.7383 50.4727C68.3242 50.7305 68.8047 51.1172 69.1797 51.6328C69.5625 52.1484 69.8438 52.7852 70.0234 53.543C70.2109 54.3008 70.3047 55.1719 70.3047 56.1562V57.5273H62.0781V55.4648H67.6094V55.1719C67.5938 54.5938 67.5234 54.0977 67.3984 53.6836C67.2734 53.2617 67.0703 52.9414 66.7891 52.7227C66.5156 52.4961 66.1367 52.3828 65.6523 52.3828C65.3008 52.3828 64.9883 52.4492 64.7148 52.582C64.4414 52.7148 64.2148 52.9297 64.0352 53.2266C63.8633 53.5234 63.7305 53.9219 63.6367 54.4219C63.543 54.9141 63.4961 55.5234 63.4961 56.25V57.4688C63.4961 58.1016 63.5508 58.6367 63.6602 59.0742C63.7773 59.5117 63.9492 59.8711 64.1758 60.1523C64.4023 60.4258 64.6758 60.6289 64.9961 60.7617C65.3242 60.8867 65.7031 60.9492 66.1328 60.9492C66.7656 60.9492 67.3086 60.832 67.7617 60.5977C68.2227 60.3555 68.6211 60.043 68.957 59.6602L70.1641 61.3359C69.9375 61.6406 69.6328 61.9414 69.25 62.2383C68.8672 62.5273 68.4023 62.7656 67.8555 62.9531C67.3164 63.1406 66.6836 63.2344 65.957 63.2344ZM75.3906 45V63H72.6602V45H75.3906ZM86.8516 57.4336H89.6875C89.6328 58.668 89.3828 59.7188 88.9375 60.5859C88.4922 61.4453 87.8516 62.1016 87.0156 62.5547C86.1875 63.0078 85.1758 63.2344 83.9805 63.2344C83.0742 63.2344 82.2617 63.0703 81.543 62.7422C80.832 62.4141 80.2266 61.9414 79.7266 61.3242C79.2266 60.6992 78.8438 59.9375 78.5781 59.0391C78.3203 58.1406 78.1914 57.1211 78.1914 55.9805V52.957C78.1914 51.8164 78.3242 50.7969 78.5898 49.8984C78.8633 49 79.2539 48.2383 79.7617 47.6133C80.2695 46.9883 80.8867 46.5156 81.6133 46.1953C82.3477 45.8672 83.1758 45.7031 84.0977 45.7031C85.2773 45.7031 86.2695 45.9297 87.0742 46.3828C87.8789 46.8359 88.5 47.5 88.9375 48.375C89.375 49.25 89.6289 50.3164 89.6992 51.5742H86.8633C86.8242 50.7227 86.707 50.043 86.5117 49.5352C86.3242 49.0195 86.0352 48.6484 85.6445 48.4219C85.2617 48.1953 84.7461 48.082 84.0977 48.082C83.5586 48.082 83.0938 48.1836 82.7031 48.3867C82.3203 48.5898 82.0039 48.8945 81.7539 49.3008C81.5117 49.6992 81.3281 50.2031 81.2031 50.8125C81.0859 51.4141 81.0273 52.1211 81.0273 52.9336V55.9805C81.0273 56.7617 81.0781 57.4531 81.1797 58.0547C81.2812 58.6562 81.4453 59.168 81.6719 59.5898C81.8984 60.0039 82.1992 60.3203 82.5742 60.5391C82.9492 60.75 83.418 60.8555 83.9805 60.8555C84.6523 60.8555 85.1875 60.75 85.5859 60.5391C85.9922 60.3281 86.293 59.9727 86.4883 59.4727C86.6836 58.9727 86.8047 58.293 86.8516 57.4336ZM91.5742 57.1758V56.1562C91.5742 55.1719 91.6953 54.3008 91.9375 53.543C92.1797 52.7852 92.5234 52.1523 92.9688 51.6445C93.4219 51.1289 93.9531 50.7422 94.5625 50.4844C95.1719 50.2188 95.8438 50.0859 96.5781 50.0859C97.3281 50.0859 98.0078 50.2188 98.6172 50.4844C99.2344 50.7422 99.7656 51.1289 100.211 51.6445C100.664 52.1523 101.012 52.7852 101.254 53.543C101.496 54.3008 101.617 55.1719 101.617 56.1562V57.1758C101.617 58.1602 101.496 59.0312 101.254 59.7891C101.012 60.5469 100.664 61.1836 100.211 61.6992C99.7656 62.207 99.2383 62.5898 98.6289 62.8477C98.0195 63.1055 97.3438 63.2344 96.6016 63.2344C95.8672 63.2344 95.1914 63.1055 94.5742 62.8477C93.9648 62.5898 93.4336 62.207 92.9805 61.6992C92.5273 61.1836 92.1797 60.5469 91.9375 59.7891C91.6953 59.0312 91.5742 58.1602 91.5742 57.1758ZM94.3047 56.1562V57.1758C94.3047 57.8086 94.3594 58.3633 94.4688 58.8398C94.5781 59.3086 94.7344 59.6992 94.9375 60.0117C95.1406 60.3242 95.3828 60.5586 95.6641 60.7148C95.9453 60.8711 96.2578 60.9492 96.6016 60.9492C96.9844 60.9492 97.3164 60.8711 97.5977 60.7148C97.8867 60.5586 98.125 60.3242 98.3125 60.0117C98.5078 59.6992 98.6523 59.3086 98.7461 58.8398C98.8398 58.3633 98.8867 57.8086 98.8867 57.1758V56.1562C98.8867 55.5312 98.832 54.9844 98.7227 54.5156C98.6133 54.0391 98.457 53.6445 98.2539 53.332C98.0508 53.0117 97.8047 52.7734 97.5156 52.6172C97.2344 52.4609 96.9219 52.3828 96.5781 52.3828C96.2422 52.3828 95.9336 52.4609 95.6523 52.6172C95.3789 52.7734 95.1406 53.0117 94.9375 53.332C94.7344 53.6445 94.5781 54.0391 94.4688 54.5156C94.3594 54.9844 94.3047 55.5312 94.3047 56.1562ZM110.348 60.3516V45H113.078V63L110.605 63.0117L110.348 60.3516ZM103.539 57.1758V56.1797C103.539 55.1406 103.633 54.2422 103.82 53.4844C104.008 52.7188 104.281 52.082 104.641 51.5742C105.008 51.0664 105.449 50.6914 105.965 50.4492C106.48 50.207 107.062 50.0859 107.711 50.0859C108.344 50.0859 108.891 50.2305 109.352 50.5195C109.812 50.8008 110.203 51.2031 110.523 51.7266C110.844 52.25 111.098 52.875 111.285 53.6016C111.48 54.3203 111.613 55.125 111.684 56.0156V57.3984C111.598 58.2578 111.461 59.0469 111.273 59.7656C111.086 60.4766 110.832 61.0898 110.512 61.6055C110.191 62.1211 109.797 62.5234 109.328 62.8125C108.867 63.0938 108.324 63.2344 107.699 63.2344C107.051 63.2344 106.469 63.1055 105.953 62.8477C105.445 62.5898 105.008 62.207 104.641 61.6992C104.281 61.1914 104.008 60.5625 103.82 59.8125C103.633 59.0547 103.539 58.1758 103.539 57.1758ZM106.27 56.1797V57.1758C106.27 57.8242 106.309 58.3828 106.387 58.8516C106.465 59.3203 106.59 59.707 106.762 60.0117C106.934 60.3086 107.16 60.5312 107.441 60.6797C107.723 60.8203 108.062 60.8906 108.461 60.8906C108.961 60.8906 109.367 60.7656 109.68 60.5156C110 60.2656 110.246 59.9297 110.418 59.5078C110.598 59.0781 110.723 58.6016 110.793 58.0781V55.3477C110.754 54.9336 110.676 54.5508 110.559 54.1992C110.441 53.8398 110.289 53.5273 110.102 53.2617C109.914 52.9961 109.684 52.7891 109.41 52.6406C109.145 52.4844 108.832 52.4062 108.473 52.4062C108.074 52.4062 107.734 52.4844 107.453 52.6406C107.172 52.7891 106.945 53.0195 106.773 53.332C106.602 53.6367 106.473 54.0273 106.387 54.5039C106.309 54.9727 106.27 55.5312 106.27 56.1797ZM120.73 63.2344C119.91 63.2344 119.18 63.1133 118.539 62.8711C117.898 62.6211 117.355 62.2539 116.91 61.7695C116.465 61.2773 116.125 60.6758 115.891 59.9648C115.656 59.2461 115.539 58.4141 115.539 57.4688V56.25C115.539 55.1797 115.66 54.2578 115.902 53.4844C116.152 52.7031 116.496 52.0625 116.934 51.5625C117.371 51.0625 117.887 50.6914 118.48 50.4492C119.082 50.207 119.734 50.0859 120.438 50.0859C121.234 50.0859 121.926 50.2148 122.512 50.4727C123.098 50.7305 123.578 51.1172 123.953 51.6328C124.336 52.1484 124.617 52.7852 124.797 53.543C124.984 54.3008 125.078 55.1719 125.078 56.1562V57.5273H116.852V55.4648H122.383V55.1719C122.367 54.5938 122.297 54.0977 122.172 53.6836C122.047 53.2617 121.844 52.9414 121.562 52.7227C121.289 52.4961 120.91 52.3828 120.426 52.3828C120.074 52.3828 119.762 52.4492 119.488 52.582C119.215 52.7148 118.988 52.9297 118.809 53.2266C118.637 53.5234 118.504 53.9219 118.41 54.4219C118.316 54.9141 118.27 55.5234 118.27 56.25V57.4688C118.27 58.1016 118.324 58.6367 118.434 59.0742C118.551 59.5117 118.723 59.8711 118.949 60.1523C119.176 60.4258 119.449 60.6289 119.77 60.7617C120.098 60.8867 120.477 60.9492 120.906 60.9492C121.539 60.9492 122.082 60.832 122.535 60.5977C122.996 60.3555 123.395 60.043 123.73 59.6602L124.938 61.3359C124.711 61.6406 124.406 61.9414 124.023 62.2383C123.641 62.5273 123.176 62.7656 122.629 62.9531C122.09 63.1406 121.457 63.2344 120.73 63.2344Z" fill="#F94370"/>
</svg>
